<?xml version="1.0" encoding="utf-8"?><svg width="38" height="21" viewBox="0 0 38 21" xmlns="http://www.w3.org/2000/svg" xmlns:xlink="http://www.w3.org/1999/xlink"><svg width="18" height="18" fill="none" viewBox="0 0 18 18" id="arrow" x="20" xmlns="http://www.w3.org/2000/svg"><path d="m4.5 6.75 4.5 4.5 4.5-4.5" stroke="currentColor" stroke-width="1.5" stroke-linecap="round" stroke-linejoin="round"/></svg><svg width="20" height="21" fill="none" viewBox="0 0 20 21" id="insta-logo" xmlns="http://www.w3.org/2000/svg"><path d="M5.8.5h8.4C17.4.5 20 3.1 20 6.3v8.4a5.8 5.8 0 0 1-5.8 5.8H5.8c-3.2 0-5.8-2.6-5.8-5.8V6.3A5.8 5.8 0 0 1 5.8.5Zm-.2 2A3.6 3.6 0 0 0 2 6.1v8.8c0 1.99 1.61 3.6 3.6 3.6h8.8a3.6 3.6 0 0 0 3.6-3.6V6.1c0-1.99-1.61-3.6-3.6-3.6H5.6ZM15.25 4a1.25 1.25 0 1 1 0 2.5 1.25 1.25 0 0 1 0-2.5ZM10 5.5a5 5 0 1 1 0 10 5 5 0 0 1 0-10Zm0 2a3 3 0 1 0 0 6 3 3 0 0 0 0-6Z" fill="#BABABA"/></svg></svg>